HIERARCHY
ROOT hip
{
  OFFSET 0 0 0
  CHANNELS 6 Xposition Yposition Zposition Zrotation Yrotation Xrotation
  JOINT abdomen
  {
    OFFSET 0 20.6881 -0.73152
    CHANNELS 3 Zrotation Xrotation Yrotation
    JOINT chest
    {
      OFFSET 0 11.7043 -0.48768
      CHANNELS 3 Zrotation Xrotation Yrotation
      JOINT neck
      {
        OFFSET 0 22.1894 -2.19456
        CHANNELS 3 Zrotation Xrotation Yrotation
        JOINT head
        {
          OFFSET -0.24384 7.07133 1.2192
          CHANNELS 3 Zrotation Xrotation Yrotation
          JOINT leftEye
          {
            OFFSET 4.14528 8.04674 8.04672
            CHANNELS 3 Zrotation Xrotation Yrotation
            End Site
            {
              OFFSET 1 0 0
            }
          }
          JOINT rightEye
          {
            OFFSET -3.6576 8.04674 8.04672
            CHANNELS 3 Zrotation Xrotation Yrotation
            End Site
            {
              OFFSET 1 0 0
            }
          }
        }
      }
      JOINT rCollar
      {
        OFFSET -2.68224 19.2634 -4.8768
        CHANNELS 3 Zrotation Xrotation Yrotation
        JOINT rShldr
        {
          OFFSET -8.77824 -1.95073 1.46304
          CHANNELS 3 Zrotation Xrotation Yrotation
          JOINT rForeArm
          {
            OFFSET -28.1742 -1.7115 0.48768
            CHANNELS 3 Zrotation Xrotation Yrotation
            JOINT rHand
            {
              OFFSET -22.5879 0.773209 7.07136
              CHANNELS 3 Zrotation Xrotation Yrotation
              JOINT rThumb1
              {
                OFFSET -1.2192 -0.487915 3.41376
                CHANNELS 3 Zrotation Xrotation Yrotation
                JOINT rThumb2
                {
                  OFFSET -3.37035 -0.52449 3.41376
                  CHANNELS 3 Zrotation Xrotation Yrotation
                  End Site
                  {
                    OFFSET -1.78271 -1.18214 1.43049
                  }
                }
              }
              JOINT rIndex1
              {
                OFFSET -7.75947 0.938293 5.60832
                CHANNELS 3 Zrotation Xrotation Yrotation
                JOINT rIndex2
                {
                  OFFSET -2.54057 -0.884171 1.56538
                  CHANNELS 3 Zrotation Xrotation Yrotation
                  End Site
                  {
                    OFFSET -1.62519 -0.234802 1.16502
                  }
                }
              }
              JOINT rMid1
              {
                OFFSET -8.24714 1.18213 3.41376
                CHANNELS 3 Zrotation Xrotation Yrotation
                JOINT rMid2
                {
                  OFFSET -3.10165 -0.590103 1.0647
                  CHANNELS 3 Zrotation Xrotation Yrotation
                  End Site
                  {
                    OFFSET -2.48547 -0.328903 0.83742
                  }
                }
              }
              JOINT rRing1
              {
                OFFSET -8.82822 0.546677 1.51678
                CHANNELS 3 Zrotation Xrotation Yrotation
                JOINT rRing2
                {
                  OFFSET -2.60934 -0.819778 -0.0198488
                  CHANNELS 3 Zrotation Xrotation Yrotation
                  End Site
                  {
                    OFFSET -2.33842 -0.294052 0.168128
                  }
                }
              }
              JOINT rPinky1
              {
                OFFSET -8.27202 -0.0477905 -0.4584
                CHANNELS 3 Zrotation Xrotation Yrotation
                JOINT rPinky2
                {
                  OFFSET -1.82734 -0.647385 -0.700984
                  CHANNELS 3 Zrotation Xrotation Yrotation
                  End Site
                  {
                    OFFSET -1.69225 -0.51767 -0.607171
                  }
                }
              }
            }
          }
        }
      }
      JOINT lCollar
      {
        OFFSET 2.68224 19.2634 -4.8768
        CHANNELS 3 Zrotation Xrotation Yrotation
        JOINT lShldr
        {
          OFFSET 8.77824 -1.95073 1.46304
          CHANNELS 3 Zrotation Xrotation Yrotation
          JOINT lForeArm
          {
            OFFSET 28.1742 -1.7115 0.48768
            CHANNELS 3 Zrotation Xrotation Yrotation
            JOINT lHand
            {
              OFFSET 22.5879 0.773209 7.07136
              CHANNELS 3 Zrotation Xrotation Yrotation
              JOINT lThumb1
              {
                OFFSET 1.2192 -0.487915 3.41376
                CHANNELS 3 Zrotation Xrotation Yrotation
                JOINT lThumb2
                {
                  OFFSET 3.37035 -0.52449 3.41376
                  CHANNELS 3 Zrotation Xrotation Yrotation
                  End Site
                  {
                    OFFSET 1.78271 -1.18214 1.43049
                  }
                }
              }
              JOINT lIndex1
              {
                OFFSET 7.75947 0.938293 5.60832
                CHANNELS 3 Zrotation Xrotation Yrotation
                JOINT lIndex2
                {
                  OFFSET 2.54057 -0.884171 1.56538
                  CHANNELS 3 Zrotation Xrotation Yrotation
                  End Site
                  {
                    OFFSET 1.62519 -0.234802 1.16502
                  }
                }
              }
              JOINT lMid1
              {
                OFFSET 8.24714 1.18213 3.41376
                CHANNELS 3 Zrotation Xrotation Yrotation
                JOINT lMid2
                {
                  OFFSET 3.10165 -0.590103 1.0647
                  CHANNELS 3 Zrotation Xrotation Yrotation
                  End Site
                  {
                    OFFSET 2.48547 -0.328903 0.83742
                  }
                }
              }
              JOINT lRing1
              {
                OFFSET 8.82822 0.546677 1.51678
                CHANNELS 3 Zrotation Xrotation Yrotation
                JOINT lRing2
                {
                  OFFSET 2.60934 -0.819778 -0.0198488
                  CHANNELS 3 Zrotation Xrotation Yrotation
                  End Site
                  {
                    OFFSET 2.33842 -0.294052 0.168128
                  }
                }
              }
              JOINT lPinky1
              {
                OFFSET 8.27202 -0.0477905 -0.4584
                CHANNELS 3 Zrotation Xrotation Yrotation
                JOINT lPinky2
                {
                  OFFSET 1.82734 -0.647385 -0.700984
                  CHANNELS 3 Zrotation Xrotation Yrotation
                  End Site
                  {
                    OFFSET 1.69225 -0.51767 -0.607171
                  }
                }
              }
            }
          }
        }
      }
    }
  }
  JOINT rButtock
  {
    OFFSET -8.77824 4.35084 1.2192
    CHANNELS 3 Zrotation Xrotation Yrotation
    JOINT rThigh
    {
      OFFSET 0 -1.70687 -2.19456
      CHANNELS 3 Zrotation Xrotation Yrotation
      JOINT rShin
      {
        OFFSET 0 -36.8199 0.73152
        CHANNELS 3 Zrotation Xrotation Yrotation
        JOINT rFoot
        {
          OFFSET 0.73152 -45.1104 -5.12064
          CHANNELS 3 Zrotation Xrotation Yrotation
          End Site
          {
            OFFSET -1.1221 -3.69964 12.103
          }
        }
      }
    }
  }
  JOINT lButtock
  {
    OFFSET 8.77824 4.35084 1.2192
    CHANNELS 3 Zrotation Xrotation Yrotation
    JOINT lThigh
    {
      OFFSET 0 -1.70687 -2.19456
      CHANNELS 3 Zrotation Xrotation Yrotation
      JOINT lShin
      {
        OFFSET 0 -36.8199 0.73152
        CHANNELS 3 Zrotation Xrotation Yrotation
        JOINT lFoot
        {
          OFFSET -0.73152 -45.1104 -5.12064
          CHANNELS 3 Zrotation Xrotation Yrotation
          End Site
          {
            OFFSET 1.1221 -3.69964 12.103
          }
        }
      }
    }
  }
}
MOTION
Frames:	4
Frame Time:	0.00833333
119.06 85.0615 -43.5051 -179.183 -4.015 -169.747 -0.680658 7.60846 -1.42377 -0.498468 1.65261 -0.537018 -2.22113 10.7966 6.58024 -3.95234 -43.719 10.8847 -0.0 0.0 0.0 -0.0 0.0 0.0 -1.24494e-14 -5.06872e-14 -9.88457e-14 60.549 28.5914 27.4266 -7.41215 -2.7109 13.0302 -1.15225 -28.955 -4.45985 9.72544e-10 -9.33064e-10 2.67594e-10 1.67617e-09 -1.60933e-09 4.81632e-10 9.72552e-10 -9.33064e-10 2.67588e-10 7.73091 5.47488 0.417314 9.72543e-10 -9.33064e-10 2.67597e-10 2.90554 0.965183 0.102902 9.72557e-10 -9.33064e-10 2.67594e-10 10.2786 0.731801 0.0259123 9.72546e-10 -9.33065e-10 2.67599e-10 2.22167 -0.733487 -0.20892 -1.25393e-14 -5.06933e-14 -9.91004e-14 -59.5641 39.6375 -36.2973 10.6179 -4.52502 -18.966 0.129954 10.2364 -1.45424 7.02731e-10 9.90581e-10 2.38915e-10 1.21648e-09 1.7071e-09 4.06767e-10 7.02734e-10 9.90583e-10 2.38932e-10 -7.73091 5.47488 -0.417314 7.02734e-10 9.90586e-10 2.3892e-10 -2.90554 0.965183 -0.102902 7.02727e-10 9.90575e-10 2.38917e-10 -10.2786 0.731801 -0.0259123 7.02742e-10 9.90593e-10 2.38916e-10 -2.22167 -0.733487 0.20892 -2.03217e-16 0.0 -3.88251e-19 -1.18952 -36.6746 -1.57933 -0.266145 38.1159 0.928811 -9.53672 -9.13804 -32.2053 2.03217e-16 0.0 3.88251e-19 -10.3728 -25.8451 -5.87867 0.0947484 28.5441 -0.608604 5.33726 -8.56814 21.4797
119.032 85.1987 -43.9485 -179.179 -4.9031 -169.558 -0.313033 7.50031 -1.32541 -0.441419 1.69336 -0.487546 -2.05118 10.7991 6.64674 -4.24071 -43.7111 11.0118 -0.0 0.0 0.0 -0.0 0.0 0.0 1.09236e-14 2.76101e-14 -8.58237e-14 60.3863 28.3701 27.2698 -7.41878 -2.71427 13.0422 -1.15272 -28.9614 -4.46098 7.14448e-11 4.53184e-11 -3.7773e-10 1.30585e-10 7.43925e-11 -6.50782e-10 7.14487e-11 4.53205e-11 -3.7774e-10 7.73091 5.47488 0.417314 7.14441e-11 4.53184e-11 -3.77724e-10 2.90554 0.965183 0.102902 7.14542e-11 4.53184e-11 -3.7773e-10 10.2786 0.731801 0.0259123 7.1443e-11 4.53188e-11 -3.77725e-10 2.22167 -0.733487 -0.20892 1.09866e-14 2.76033e-14 -8.61405e-14 -59.2454 40.2153 -36.4632 10.6628 -4.55385 -19.0505 0.120932 9.87693 -1.40213 1.76737e-10 2.92763e-10 2.16115e-10 3.07683e-10 5.05005e-10 3.71463e-10 1.76739e-10 2.92772e-10 2.16139e-10 -7.73091 5.47488 -0.417314 1.7674e-10 2.92766e-10 2.16121e-10 -2.90554 0.965183 -0.102902 1.76731e-10 2.9276e-10 2.16118e-10 -10.2786 0.731801 -0.0259123 1.76752e-10 2.92777e-10 2.1612e-10 -2.22167 -0.733487 0.20892 -2.03217e-16 0.0 -3.88251e-19 -0.455666 -36.1869 0.739041 -0.221955 35.7555 0.902555 -10.703 -10.4192 -33.5626 2.03217e-16 0.0 3.88251e-19 -10.3402 -25.2258 -5.95681 0.0893391 27.799 -0.589069 5.02191 -7.88723 21.1928
118.948 85.3429 -44.4926 -179.278 -5.6883 -169.683 -0.000808004 7.39501 -1.29182 -0.35238 1.73575 -0.463649 -1.94888 10.7808 6.74376 -4.42218 -43.6996 11.2065 -0.0 0.0 0.0 -0.0 0.0 0.0 2.43726e-14 7.3157e-14 -7.05686e-14 60.2326 28.109 27.1282 -7.41944 -2.71464 13.0433 -1.14856 -28.9159 -4.45256 -4.7023e-10 6.06158e-10 -7.22383e-10 -7.99267e-10 1.03966e-09 -1.25673e-09 -4.70228e-10 6.06161e-10 -7.22393e-10 7.73091 5.47488 0.417314 -4.7023e-10 6.06158e-10 -7.22374e-10 2.90554 0.965183 0.102902 -4.70223e-10 6.06158e-10 -7.22383e-10 10.2786 0.731801 0.0259123 -4.70234e-10 6.0616e-10 -7.22377e-10 2.22167 -0.733487 -0.20892 2.45301e-14 7.31502e-14 -7.09164e-14 -59.0315 40.6973 -36.5553 10.7052 -4.58105 -19.1307 0.114141 9.58995 -1.36064 -1.25059e-10 -1.40221e-10 1.65977e-10 -2.13973e-10 -2.41092e-10 2.87196e-10 -1.25059e-10 -1.40208e-10 1.66006e-10 -7.73091 5.47488 -0.417314 -1.25057e-10 -1.4022e-10 1.65984e-10 -2.90554 0.965183 -0.102902 -1.25066e-10 -1.40221e-10 1.65981e-10 -10.2786 0.731801 -0.0259123 -1.25042e-10 -1.40206e-10 1.65984e-10 -2.22167 -0.733487 0.20892 -2.03217e-16 0.0 -3.88251e-19 0.105337 -35.7382 3.1455 -0.185236 33.6022 0.870922 -11.5695 -11.2731 -34.6436 2.03217e-16 0.0 3.88251e-19 -10.3872 -24.5763 -6.08445 0.0835373 27.0628 -0.571766 4.7727 -7.4433 20.7986
118.832 85.4714 -45.066 -179.391 -6.6118 -169.788 0.215434 7.30251 -1.3796 -0.214436 1.77252 -0.484697 -1.94857 10.7176 6.89667 -4.42959 -43.654 11.5327 -0.0 0.0 0.0 -0.0 0.0 0.0 2.4132e-14 6.93298e-14 -5.50851e-14 60.07 27.8398 27.0169 -7.42193 -2.71579 13.048 -1.14152 -28.8346 -4.4377 -4.62243e-10 5.08455e-10 -6.31043e-10 -7.8693e-10 8.71015e-10 -1.09877e-09 -4.62239e-10 5.08457e-10 -6.3105e-10 7.73091 5.47488 0.417314 -4.62241e-10 5.08454e-10 -6.31032e-10 2.90554 0.965183 0.102902 -4.62238e-10 5.08455e-10 -6.31042e-10 10.2786 0.731801 0.0259123 -4.62249e-10 5.08457e-10 -6.31035e-10 2.22167 -0.733487 -0.20892 2.43004e-14 6.93242e-14 -5.54167e-14 -58.9868 41.0395 -36.518 10.7468 -4.60765 -19.2096 0.110236 9.41798 -1.33582 -8.14068e-11 -1.63109e-10 7.69207e-11 -1.39097e-10 -2.80966e-10 1.33089e-10 -8.14084e-11 -1.63096e-10 7.69502e-11 -7.73091 5.47488 -0.417314 -8.1404e-11 -1.63108e-10 7.69261e-11 -2.90554 0.965183 -0.102902 -8.14122e-11 -1.63108e-10 7.69241e-11 -10.2786 0.731801 -0.0259123 -8.1391e-11 -1.63096e-10 7.69261e-11 -2.22167 -0.733487 0.20892 -2.03217e-16 0.0 -3.88251e-19 0.441712 -35.319 5.73373 -0.157101 31.6211 0.830687 -12.0425 -11.6636 -35.4003 2.03217e-16 0.0 3.88251e-19 -10.579 -23.8495 -6.31857 0.0761612 26.2889 -0.556855 4.61261 -7.33815 20.2591
